# xmcd
#
# Track frame offsets:
#	150
#	17358
#	34327
#	49301
#	62452
#	76350
#	92217
#	107825
#	127159
#	144258
#	165211
#	181636
#	197098
#	215851
#	232217
#	246564
#	260391
#	276514
#	293186
#	306480
#	322917
#	337247
#
# Disc length: 4784 seconds
#
# Revision: 1
# Processed by: cddbd v1.5.2PL0 Copyright (c) Steve Scherf et al.
# Submitted via: audiograbber 1.83.01
#
DISCID=5212ae16
DTITLE=Various Artist - CDX Volume 623 (October 5, 2015)
DYEAR=2015
DGENRE=Country
TTITLE0=George Strait - Cold Beer Conversation 
TTITLE1=Brad Paisley - Country Nation
TTITLE2=Dylan Scott - Crazy Over Me 
TTITLE3=Home Free (featuring The Oak Ridge Boys) - Elvira
TTITLE4=Eric Paslay - High Class
TTITLE5=Chris Janson - Power Of Positive Drinkin'
TTITLE6=Kip Moore - Running For You 
TTITLE7=Charles Kelley (featuring Dierks Bentley and Eric Paslay) - The Driver 
TTITLE8=Kyan Kinder - Tonight 
TTITLE9=John Conlee - Bread And Water
TTITLE10=Donovan Lee - 10 Minutes To Little Rock
TTITLE11=Dave And Whitney - Alibi
TTITLE12=Kacey Jones - Donald Trump's Hair
TTITLE13=Eileen Carey - Faith
TTITLE14=Caitlin Sinness - It's Workin'
TTITLE15=Sammy Hakim - Kiss Some Boys 
TTITLE16=Mike Aiken - Night Riders Lament (radio edit)
TTITLE17=Curtis Braly and Kimberly Caldwell - Sooner Or Later 
TTITLE18=Eric Chesser - Tailgate
TTITLE19=April - What I'd Say
TTITLE20=Shane Owens - Where I'm Comin' From
TTITLE21=Dennis Morgan - Pumpkin Head Harvey
EXTD=
EXTT0=
EXTT1=
EXTT2=
EXTT3=
EXTT4=
EXTT5=
EXTT6=
EXTT7=
EXTT8=
EXTT9=
EXTT10=
EXTT11=
EXTT12=
EXTT13=
EXTT14=
EXTT15=
EXTT16=
EXTT17=
EXTT18=
EXTT19=
EXTT20=
EXTT21=
PLAYORDER=
